<?xml version="1.0" encoding="UTF-8"?>
<svg id="Capa_2" data-name="Capa 2" xmlns="http://www.w3.org/2000/svg" viewBox="0 0 300 301.3">
  <defs>
    <style>
      .cls-1 {
        fill: #211915;
      }
    </style>
  </defs>
  <g id="Capa_1-2" data-name="Capa 1">
    <path class="cls-1" d="M149.74,301.3C67.95,301.3,.93,234,0,152.8-.93,69.77,66.24-.22,150.38,0c82.98,.22,149.68,67.67,149.62,151.65-.06,82.66-67.32,149.66-150.26,149.65m94.09-48.44h-7.11c-23.33,0-46.67-.11-70,.09-4.93,.05-6.64-1.46-6.62-6.5,.26-63.43,.4-126.85,.36-190.28,0-5.22,1.91-6.4,6.69-6.31,13.07,.25,26.15,.24,39.22,.04,14.53-.21,28.99-.23,42.75,5.43,.35,.15,.95-.31,1.89-.65-1.33-1.45-2.33-2.64-3.44-3.72-20.07-19.65-43.84-32.31-71.49-37.63C115.3,1.63,53.27,32.19,26.09,87.45c-1.23,2.5-1.72,6.53-.56,8.85,15.65,31.45,31.64,62.74,47.6,94.04,.56,1.1,1.59,1.96,3.08,3.75,24.34-48.53,48.27-96.22,72.2-143.91,.54,.14,1.09,.28,1.64,.42,.17,1.9,.48,3.8,.48,5.7,.03,63.63,.04,127.26,0,190.88,0,5.74-1.69,6.98-7.3,6.3-5.05-.61-3.86-4.38-3.87-7.34-.06-46.17-.04-92.33-.04-138.5v-8.13c-.6-.13-1.2-.26-1.8-.38l-60.97,121.2c-.71-.15-1.41-.29-2.12-.43-18.56-36.48-37.13-72.97-56.12-110.3-17.39,40.97-6.38,115.52,52.99,156.41,61.65,42.46,136.39,24.29,172.55-13.15m-72.9-55.42c0,13.83,.14,27.67-.08,41.49-.07,4.23,1.37,5.69,5.55,5.5,5.81-.27,11.65-.06,17.48-.06,16.47-.02,32.94-.1,49.42-.03,7.49,.04,13.16-2.27,17.84-8.78,12.74-17.72,21.62-36.89,25.83-58.36,1.01-5.14-.18-8.33-4.04-11.39-9.77-7.73-21.08-12.39-33.19-13.02-24.84-1.29-49.75-1.23-74.63-1.83-4.32-.1-4.18,2.63-4.18,5.57,.03,13.64,.01,27.27,.01,40.9m.03-96.48c0,11.64,.3,23.29-.13,34.92-.21,5.72,1.85,7.12,7.25,6.99,14.27-.33,28.56,.13,42.83-.22,6.38-.16,12.89-.87,19.07-2.39,31.12-7.68,42.67-42.89,21.42-65.29-9.1-9.58-20.74-14.57-33.94-14.91-17.08-.45-34.19-.18-51.27-.45-4.48-.07-5.35,1.94-5.29,5.84,.17,11.84,.06,23.68,.06,35.53m117.91,57.24c.92-17.17-.96-33.49-6.99-49.49-3.49,13.67-10.24,25.04-21.07,32.92,9.33,5.51,18.21,10.76,28.07,16.57"/>
  </g>
</svg>